<svg id="Layer_1" data-name="Layer 1" xmlns="http://www.w3.org/2000/svg" viewBox="0 0 149.35 148.81"><defs><style>.cls-1{fill:#d1d3d4;}.cls-15,.cls-2{fill:none;stroke-miterlimit:10;}.cls-2{stroke:#cf2027;}.cls-3{font-size:22.37px;}.cls-14,.cls-3{fill:#231f20;}.cls-12,.cls-3{font-family:DINCondensed-Bold, DIN Condensed;font-weight:700;}.cls-11,.cls-3,.cls-8{letter-spacing:0.01em;}.cls-4,.cls-6{fill:#939598;}.cls-4,.cls-5{letter-spacing:0.01em;}.cls-7{letter-spacing:0.01em;}.cls-10,.cls-11,.cls-9{fill:#808285;}.cls-10{letter-spacing:-0.04em;}.cls-12{font-size:12px;fill:#f1f2f2;}.cls-13{opacity:0.45;}.cls-15{stroke:#4d4a42;opacity:0.5;}</style></defs><rect class="cls-1" x="0.5" y="0.5" width="147.81" height="147.81" rx="25"/><rect class="cls-2" x="0.5" y="0.5" width="147.81" height="147.81" rx="25"/><text class="cls-3" transform="translate(26.18 51.79) scale(1.17 1)">G<tspan class="cls-4" x="9.82" y="0">R</tspan><tspan class="cls-5" x="19.64" y="0">A</tspan><tspan class="cls-4" x="29.04" y="0">H</tspan><tspan class="cls-5" x="38.86" y="0">A</tspan><tspan class="cls-6" x="48.26" y="0">M</tspan><tspan x="60.99" y="0">S</tspan><tspan class="cls-6" x="70.36" y="0">H</tspan><tspan class="cls-7" x="80.18" y="0"> </tspan><tspan class="cls-5"><tspan x="27.04" y="28">T</tspan><tspan class="cls-6" x="34.76" y="28">H</tspan><tspan class="cls-8" x="44.58" y="28">E </tspan><tspan x="1.28" y="56">S</tspan><tspan class="cls-9" x="10.65" y="56">C</tspan><tspan x="20.05" y="56">R</tspan><tspan class="cls-10" x="29.87" y="56">A</tspan><tspan class="cls-7" x="38.03" y="56">T</tspan><tspan class="cls-11" x="45.75" y="56">C</tspan><tspan class="cls-8" x="55.15" y="56">H</tspan><tspan class="cls-11" x="64.97" y="56">E</tspan><tspan class="cls-8" x="73.54" y="56">R</tspan></tspan></text><text class="cls-12" transform="translate(56.06 137.75)">Since 2016</text><g class="cls-13"><path class="cls-14" d="M380.57,346c-.11-13.75-8.1-17-17.77-7.23L250.73,452.06c-9.67,9.77-6.33,17.66,7.42,17.53l98.33-.94a25.14,25.14,0,0,0,24.81-25.24Z" transform="translate(-231.94 -321.25)"/></g><line class="cls-15" x1="42.88" y1="56.58" x2="100.3" y2="56.58"/><line class="cls-15" x1="45.7" y1="83.41" x2="103.11" y2="83.41"/><line class="cls-15" x1="45.7" y1="113.41" x2="103.11" y2="113.41"/><text x="-231.94" y="-321.25"/></svg>